# xmcd
#
# Track frame offsets: 
#        150
#        22807
#        51727
#        73142
#        94617
#        112922
#        131157
#        149855
#        167047
#        184572
#        199960
#        220557
#        239892
#
# Disc length: 3447 seconds
#
# Revision: 3
# Processed by: cddbd v1.5.2PL0 Copyright (c) Steve Scherf et al.
# Submitted via: ExactAudioCopy v1.0b3
#
DISCID=ca0d750d
DTITLE=Carl Weathersby - Restless Feeling [HDCD]
DYEAR=1998
DGENRE=Blues
TTITLE0=Matchbox Holds My Clothes
TTITLE1=A Real Mutha for Ya
TTITLE2=It's You That I Want
TTITLE3=Restless Feeling
TTITLE4=Woman Song
TTITLE5=Wheel of Fortune
TTITLE6=We All Wanna Boogie
TTITLE7=Meadville, Mississippi
TTITLE8=Everything I Do
TTITLE9=Rhymes
TTITLE10=Tired of Being Alone
TTITLE11=Glory Be
TTITLE12=She's Gone
EXTD=YEAR: 1998
EXTT0=
EXTT1=
EXTT2=
EXTT3=
EXTT4=
EXTT5=
EXTT6=
EXTT7=
EXTT8=
EXTT9=
EXTT10=
EXTT11=
EXTT12=
PLAYORDER=
